# xmcd
#
# Track frame offsets: 
#        150
#        19199
#        39437
#        55212
#        78288
#        99017
#        110092
#        126994
#        144490
#        157018
#        170255
#        187523
#        199980
#        222154
#        236957
#        256213
#        273023
#        291634
#        316202
#        335835
#
# Disc length: 4658 seconds
#
# Revision: 2
# Processed by: cddbd v1.5.2PL0 Copyright (c) Steve Scherf et al.
# Submitted via: ExactAudioCopyFreeDBPlugin 1.0
#
DISCID=22123014
DTITLE=Various Artist - Testament van de Seventies [CD1)
DYEAR=2008
DGENRE=Pop
TTITLE0=Santana - Jin-Go-Lo-Ba
TTITLE1=D.C. Lewis - Mijn Gebed
TTITLE2=Diana Ross and Supremes - Someday We'll Be Together
TTITLE3=Unit Gloria - Our Father
TTITLE4=John Mayall - Room To Move
TTITLE5=Creedence Clearwater Revival - Who'll Stop The Rain
TTITLE6=Melanie - Lay Down
TTITLE7=Tim Hardin - Simple Song Of Freedom
TTITLE8=Rare Earth - Get Ready
TTITLE9=Simon and Garfunkel - Cecilia
TTITLE10=Guess Who - American Woman
TTITLE11=Christie - Yellow River
TTITLE12=Moody Blues - Question
TTITLE13=Roger Whittaker - I Don't Believe In If Anymore
TTITLE14=Free - All Right Now
TTITLE15=Cat Stevens - Lady d'Arbanville
TTITLE16=Kinks - Lola
TTITLE17=Pacific Gas and Electric - Are You Ready
TTITLE18=Bonnie St. Claire - I Won't Stand Between Them
TTITLE19=Smokey Robinson and Miracles - The Tears Of A Clown
EXTD=YEAR: 2008
EXTT0=
EXTT1=
EXTT2=
EXTT3=
EXTT4=
EXTT5=
EXTT6=
EXTT7=
EXTT8=
EXTT9=
EXTT10=
EXTT11=
EXTT12=
EXTT13=
EXTT14=
EXTT15=
EXTT16=
EXTT17=
EXTT18=
EXTT19=
PLAYORDER=
